<svg width="24" height="24" viewBox="0 0 24 24" fill="none" xmlns="http://www.w3.org/2000/svg">
<path d="M5.25 4C4.38805 4 3.5614 4.34241 2.9519 4.9519C2.34241 5.5614 2 6.38805 2 7.25V16.75C2 17.612 2.34241 18.4386 2.9519 19.0481C3.5614 19.6576 4.38805 20 5.25 20H13.002L13 19.875V19.772C13 19.313 13.111 18.881 13.308 18.5H5.25C4.78587 18.5 4.34075 18.3156 4.01256 17.9874C3.68437 17.6592 3.5 17.2141 3.5 16.75V7.25C3.5 6.284 4.284 5.5 5.25 5.5H18.75C19.716 5.5 20.5 6.284 20.5 7.25V11.627C20.9631 11.9495 21.3414 12.3792 21.6026 12.8794C21.8638 13.3797 22.0001 13.9357 22 14.5V7.25C22 6.8232 21.9159 6.40059 21.7526 6.00628C21.5893 5.61197 21.3499 5.25369 21.0481 4.9519C20.7463 4.65011 20.388 4.41072 19.9937 4.24739C19.5994 4.08406 19.1768 4 18.75 4H5.25ZM21 14.5C21 15.163 20.7366 15.7989 20.2678 16.2678C19.7989 16.7366 19.163 17 18.5 17C17.837 17 17.2011 16.7366 16.7322 16.2678C16.2634 15.7989 16 15.163 16 14.5C16 13.837 16.2634 13.2011 16.7322 12.7322C17.2011 12.2634 17.837 12 18.5 12C19.163 12 19.7989 12.2634 20.2678 12.7322C20.7366 13.2011 21 13.837 21 14.5ZM23 19.875C23 21.431 21.714 23 18.5 23C15.286 23 14 21.437 14 19.875V19.772C14 18.792 14.794 18 15.773 18H21.227C22.207 18 23 18.793 23 19.772V19.875Z" fill="#0095FF"/>
</svg>
