<svg width="16" height="16" viewBox="0 0 16 16" fill="none" xmlns="http://www.w3.org/2000/svg">
<path d="M2.50395 8.06912L2.49928 8.00245C2.49913 7.88151 2.54281 7.76461 2.62224 7.67342C2.70167 7.58222 2.81147 7.5229 2.93128 7.50645L2.99928 7.50179L11.4633 7.50245L9.31595 5.35579C9.23127 5.27113 9.17979 5.15889 9.17086 5.03948C9.16192 4.92008 9.19614 4.80143 9.26728 4.70512L9.31528 4.64912C9.39998 4.56427 9.51235 4.51267 9.63191 4.50374C9.75146 4.4948 9.87025 4.52913 9.96662 4.60045L10.0226 4.64845L13.0226 7.64645C13.1073 7.73111 13.1588 7.84335 13.1677 7.96275C13.1766 8.08216 13.1424 8.20081 13.0713 8.29712L13.0226 8.35312L10.0226 11.3558C9.93328 11.4444 9.81381 11.4961 9.68804 11.5005C9.56228 11.505 9.43946 11.4618 9.34412 11.3797C9.24877 11.2975 9.1879 11.1825 9.17366 11.0574C9.15942 10.9324 9.19285 10.8066 9.26728 10.7051L9.31528 10.6491L11.4606 8.50245L2.99928 8.50245C2.87826 8.5024 2.76136 8.45846 2.67027 8.37877C2.57918 8.29909 2.52009 8.18906 2.50395 8.06912Z" fill="#666666"/>
</svg>
