<svg width="24" height="24" viewBox="0 0 24 24" fill="none" xmlns="http://www.w3.org/2000/svg">
<path d="M3 5.75C3 5.55109 3.07902 5.36032 3.21967 5.21967C3.36032 5.07902 3.55109 5 3.75 5C6.413 5 9.008 4.057 11.55 2.15C11.6798 2.05263 11.8377 2 12 2C12.1623 2 12.3202 2.05263 12.45 2.15C14.992 4.057 17.587 5 20.25 5C20.4489 5 20.6397 5.07902 20.7803 5.21967C20.921 5.36032 21 5.55109 21 5.75V11C21 11.338 20.9867 11.67 20.96 11.996C20.502 11.7079 20.0099 11.4781 19.495 11.312C19.4983 11.2087 19.5 11.1047 19.5 11V6.478C16.923 6.326 14.42 5.388 12 3.678C9.58 5.388 7.077 6.326 4.5 6.478V11C4.5 15.149 6.832 18.221 11.625 20.285C11.887 20.8363 12.2253 21.348 12.63 21.805L12.275 21.948C12.0983 22.0176 11.9017 22.0176 11.725 21.948C5.958 19.676 3 16 3 11V5.75ZM23 17.5C23 18.9587 22.4205 20.3576 21.3891 21.3891C20.3576 22.4205 18.9587 23 17.5 23C16.0413 23 14.6424 22.4205 13.6109 21.3891C12.5795 20.3576 12 18.9587 12 17.5C12 16.0413 12.5795 14.6424 13.6109 13.6109C14.6424 12.5795 16.0413 12 17.5 12C18.9587 12 20.3576 12.5795 21.3891 13.6109C22.4205 14.6424 23 16.0413 23 17.5ZM20.854 15.146C20.8076 15.0994 20.7524 15.0625 20.6916 15.0373C20.6309 15.0121 20.5658 14.9991 20.5 14.9991C20.4342 14.9991 20.3691 15.0121 20.3084 15.0373C20.2476 15.0625 20.1924 15.0994 20.146 15.146L16.5 18.793L14.854 17.146C14.7601 17.0521 14.6328 16.9994 14.5 16.9994C14.3672 16.9994 14.2399 17.0521 14.146 17.146C14.0521 17.2399 13.9994 17.3672 13.9994 17.5C13.9994 17.6328 14.0521 17.7601 14.146 17.854L16.146 19.854C16.1924 19.9006 16.2476 19.9375 16.3084 19.9627C16.3691 19.9879 16.4342 20.0009 16.5 20.0009C16.5658 20.0009 16.6309 19.9879 16.6916 19.9627C16.7524 19.9375 16.8076 19.9006 16.854 19.854L20.854 15.854C20.9006 15.8076 20.9375 15.7524 20.9627 15.6916C20.9879 15.6309 21.0009 15.5658 21.0009 15.5C21.0009 15.4342 20.9879 15.3691 20.9627 15.3084C20.9375 15.2476 20.9006 15.1924 20.854 15.146Z" fill="#12B000"/>
</svg>
