<svg width="24" height="24" viewBox="0 0 24 24" fill="none" xmlns="http://www.w3.org/2000/svg">
<path d="M17 2.49805C17.5834 2.49799 18.1575 2.64366 18.6703 2.92183C19.183 3.2 19.6182 3.60185 19.9362 4.09089C20.2542 4.57994 20.445 5.14068 20.4913 5.7222C20.5376 6.30371 20.4379 6.88758 20.2012 7.42077C19.9646 7.95396 19.5985 8.41959 19.1362 8.77537C18.6739 9.13114 18.13 9.36579 17.554 9.45801C16.978 9.55023 16.388 9.4971 15.8378 9.30343C15.2875 9.10977 14.7943 8.78171 14.403 8.34905L9.84502 10.954C10.0583 11.6351 10.0583 12.365 9.84502 13.046L14.402 15.652C14.9814 15.0118 15.7769 14.6082 16.6358 14.5188C17.4946 14.4293 18.3562 14.6603 19.0551 15.1674C19.754 15.6744 20.2409 16.4218 20.4224 17.266C20.6038 18.1102 20.467 18.9917 20.0381 19.7412C19.6093 20.4906 18.9187 21.0552 18.099 21.3266C17.2792 21.5979 16.3881 21.5568 15.5969 21.2112C14.8056 20.8655 14.1699 20.2398 13.8118 19.454C13.4538 18.6683 13.3986 17.778 13.657 16.954L9.10002 14.347C8.62539 14.8719 8.00291 15.2406 7.31459 15.4046C6.62627 15.5687 5.9044 15.5204 5.24408 15.2661C4.58376 15.0118 4.01596 14.5634 3.61549 13.98C3.21503 13.3966 3.00067 12.7056 3.00067 11.998C3.00067 11.2904 3.21503 10.5994 3.61549 10.0161C4.01596 9.4327 4.58376 8.98433 5.24408 8.73003C5.9044 8.47572 6.62627 8.42741 7.31459 8.59147C8.00291 8.75552 8.62539 9.12424 9.10002 9.64905L13.657 7.04505C13.4931 6.52068 13.4548 5.96509 13.5453 5.42319C13.6358 4.8813 13.8525 4.36829 14.178 3.92565C14.5034 3.48301 14.9284 3.12314 15.4187 2.87514C15.9089 2.62714 16.4506 2.49796 17 2.49805ZM17 15.998C16.4691 15.998 15.9598 16.209 15.5844 16.5844C15.2089 16.9599 14.998 17.4691 14.998 18C14.998 18.531 15.2089 19.0402 15.5844 19.4157C15.9598 19.7911 16.4691 20.002 17 20.002C17.531 20.002 18.0402 19.7911 18.4156 19.4157C18.7911 19.0402 19.002 18.531 19.002 18C19.002 17.4691 18.7911 16.9599 18.4156 16.5844C18.0402 16.209 17.531 15.998 17 15.998ZM6.50202 9.99805C5.97105 9.99805 5.46184 10.209 5.08639 10.5844C4.71094 10.9599 4.50002 11.4691 4.50002 12C4.50002 12.531 4.71094 13.0402 5.08639 13.4157C5.46184 13.7911 5.97105 14.002 6.50202 14.002C7.03298 14.002 7.5422 13.7911 7.91764 13.4157C8.29309 13.0402 8.50402 12.531 8.50402 12C8.50402 11.4691 8.29309 10.9599 7.91764 10.5844C7.5422 10.209 7.03298 9.99805 6.50202 9.99805ZM17 3.99805C16.4691 3.99805 15.9598 4.20897 15.5844 4.58442C15.2089 4.95987 14.998 5.46908 14.998 6.00005C14.998 6.53101 15.2089 7.04023 15.5844 7.41568C15.9598 7.79112 16.4691 8.00205 17 8.00205C17.531 8.00205 18.0402 7.79112 18.4156 7.41568C18.7911 7.04023 19.002 6.53101 19.002 6.00005C19.002 5.46908 18.7911 4.95987 18.4156 4.58442C18.0402 4.20897 17.531 3.99805 17 3.99805Z" fill="#F3A600"/>
</svg>
