<svg width="24" height="24" viewBox="0 0 24 24" fill="none" xmlns="http://www.w3.org/2000/svg">
<path d="M11 17.5C11 18.596 11.271 19.629 11.75 20.535V21.25C11.7499 21.44 11.6778 21.6229 11.548 21.7618C11.4183 21.9006 11.2407 21.9851 11.0511 21.998C10.8615 22.011 10.6741 21.9515 10.5267 21.8316C10.3793 21.7117 10.2829 21.5402 10.257 21.352L10.25 21.25V18.982C8.59152 18.8588 7.03687 18.1278 5.88421 16.929C4.73155 15.7302 4.06201 14.148 4.004 12.486L4 12.25V11.75C4.00006 11.56 4.07224 11.3771 4.20197 11.2382C4.3317 11.0994 4.5093 11.0149 4.69888 11.002C4.88846 10.989 5.07589 11.0485 5.2233 11.1684C5.37071 11.2883 5.4671 11.4598 5.493 11.648L5.5 11.75V12.25C5.49989 13.6051 6.02372 14.9077 6.96194 15.8854C7.90015 16.8632 9.18008 17.4402 10.534 17.496L10.75 17.5H11ZM15 6V11.498C14.4504 11.7274 13.9349 12.0312 13.468 12.401C13.4893 12.271 13.5 12.1373 13.5 12V6C13.5 5.33696 13.2366 4.70107 12.7678 4.23223C12.2989 3.76339 11.663 3.5 11 3.5C10.337 3.5 9.70107 3.76339 9.23223 4.23223C8.76339 4.70107 8.5 5.33696 8.5 6V12C8.49993 12.3973 8.59453 12.7889 8.77598 13.1423C8.95742 13.4957 9.22048 13.8008 9.54336 14.0323C9.86623 14.2637 10.2396 14.4149 10.6326 14.4733C11.0256 14.5317 11.4268 14.4956 11.803 14.368C11.5214 14.88 11.3102 15.4276 11.175 15.996L11 16C9.93913 16 8.92172 15.5786 8.17157 14.8284C7.42143 14.0783 7 13.0609 7 12V6C7 4.93913 7.42143 3.92172 8.17157 3.17157C8.92172 2.42143 9.93913 2 11 2C12.0609 2 13.0783 2.42143 13.8284 3.17157C14.5786 3.92172 15 4.93913 15 6ZM20 17.5C20 18.163 19.7366 18.7989 19.2678 19.2678C18.7989 19.7366 18.163 20 17.5 20C16.837 20 16.2011 19.7366 15.7322 19.2678C15.2634 18.7989 15 18.163 15 17.5C15 16.837 15.2634 16.2011 15.7322 15.7322C16.2011 15.2634 16.837 15 17.5 15C18.163 15 18.7989 15.2634 19.2678 15.7322C19.7366 16.2011 20 16.837 20 17.5ZM23 17.5C23 18.9587 22.4205 20.3576 21.3891 21.3891C20.3576 22.4205 18.9587 23 17.5 23C16.0413 23 14.6424 22.4205 13.6109 21.3891C12.5795 20.3576 12 18.9587 12 17.5C12 16.0413 12.5795 14.6424 13.6109 13.6109C14.6424 12.5795 16.0413 12 17.5 12C18.9587 12 20.3576 12.5795 21.3891 13.6109C22.4205 14.6424 23 16.0413 23 17.5ZM13.5 17.5C13.5 18.5609 13.9214 19.5783 14.6716 20.3284C15.4217 21.0786 16.4391 21.5 17.5 21.5C18.5609 21.5 19.5783 21.0786 20.3284 20.3284C21.0786 19.5783 21.5 18.5609 21.5 17.5C21.5 16.4391 21.0786 15.4217 20.3284 14.6716C19.5783 13.9214 18.5609 13.5 17.5 13.5C16.4391 13.5 15.4217 13.9214 14.6716 14.6716C13.9214 15.4217 13.5 16.4391 13.5 17.5Z" fill="#FF3241"/>
</svg>
