<svg width="20" height="20" viewBox="0 0 20 20" fill="none" xmlns="http://www.w3.org/2000/svg">
<path d="M18.3333 9.99996V15.8333C18.3333 16.471 18.0897 17.0846 17.6522 17.5485C17.2148 18.0125 16.6165 18.2917 15.98 18.3291L15.8333 18.3333H13.3333C13.1292 18.3333 12.9322 18.2583 12.7796 18.1227C12.6271 17.9871 12.5297 17.8002 12.5058 17.5975L12.5 17.5V12.5C12.5 12.2958 12.5749 12.0988 12.7106 11.9463C12.8462 11.7938 13.0331 11.6963 13.2358 11.6725L13.3333 11.6666H17.0833V9.99996C17.0833 8.12134 16.337 6.31967 15.0086 4.99129C13.6803 3.6629 11.8786 2.91663 9.99996 2.91663C8.12134 2.91663 6.31967 3.6629 4.99129 4.99129C3.6629 6.31967 2.91663 8.12134 2.91663 9.99996V11.6666H6.66663C6.88764 11.6666 7.0996 11.7544 7.25588 11.9107C7.41216 12.067 7.49996 12.2789 7.49996 12.5V17.5C7.49996 17.721 7.41216 17.9329 7.25588 18.0892C7.0996 18.2455 6.88764 18.3333 6.66663 18.3333H4.16663C3.50358 18.3333 2.8677 18.0699 2.39886 17.6011C1.93002 17.1322 1.66663 16.4963 1.66663 15.8333V9.99996C1.66663 5.39746 5.39746 1.66663 9.99996 1.66663C14.6025 1.66663 18.3333 5.39746 18.3333 9.99996ZM6.24996 12.9166H2.91663V15.8333C2.91663 16.1648 3.04832 16.4828 3.28274 16.7172C3.51716 16.9516 3.83511 17.0833 4.16663 17.0833H6.24996V12.9166ZM17.0833 12.9166H13.75V17.0833H15.8333C16.1439 17.0833 16.4434 16.9677 16.6734 16.7589C16.9034 16.5502 17.0474 16.2633 17.0775 15.9541L17.0833 15.8333V12.9166Z" fill="#0000C9"/>
</svg>
