<svg width="20" height="20" viewBox="0 0 20 20" fill="none" xmlns="http://www.w3.org/2000/svg">
<path d="M4.74505 9.99997L1.91588 2.72664C1.87257 2.6156 1.86191 2.49448 1.88516 2.37758C1.90841 2.26068 1.96461 2.15287 2.04712 2.06685C2.12963 1.98084 2.23502 1.92021 2.35085 1.89212C2.46668 1.86403 2.58814 1.86964 2.70088 1.9083L2.77838 1.9408L17.7784 9.44081C17.8751 9.48911 17.9577 9.56169 18.018 9.65144C18.0782 9.7412 18.1142 9.84506 18.1224 9.95287C18.1305 10.0607 18.1105 10.1688 18.0644 10.2666C18.0183 10.3644 17.9476 10.4485 17.8592 10.5108L17.7784 10.5591L2.77838 18.0591C2.29255 18.3016 1.76422 17.855 1.89088 17.3525L1.91588 17.2733L4.74505 9.99997ZM3.66838 3.7833L5.84338 9.37497H11.3659C11.5169 9.37498 11.6628 9.42967 11.7767 9.52894C11.8905 9.62821 11.9645 9.76534 11.9851 9.91497L11.9909 9.99997C11.9908 10.1511 11.936 10.2972 11.8366 10.411C11.7372 10.5248 11.5998 10.5988 11.45 10.6191L11.3659 10.625H5.84172L3.66755 16.2166L16.1017 9.99997L3.66838 3.7833Z" fill="#E0E0E0"/>
</svg>
